# xmcd
#
# Track frame offsets:
#	150
#	15318
#	30023
#	47368
#	69823
#	105583
#	123298
#	142364
#	160190
#	176939
#
# Disc length: 2553 seconds
#
# Revision: 1
# Processed by: cddbd v1.5.2PL0 Copyright (c) Steve Scherf et al.
# Submitted via: audiograbber 1.83.01
#
DISCID=7409f70a
DTITLE=Various Artist - Awesome 80's, Volume 5
DYEAR=1999
DGENRE=Pop
TTITLE0=Timbuk 3 - The Future's So Bright, I Gotta Wear Shades
TTITLE1=Stray Cats - Stray Cat Strut
TTITLE2=Eddy Grant - Electric Avenue
TTITLE3=Billy Idol - Eyes Without a Face
TTITLE4=Golden Earring - Twilight Zone
TTITLE5=The J. Geils Band - Freeze Frame
TTITLE6=Dan Hartman - I Can Dream About You
TTITLE7=The Tubes - She's a Beauty
TTITLE8=Kajagoogoo - Too Shy
TTITLE9=The Motels - Only the Lonely
EXTD=
EXTT0=
EXTT1=
EXTT2=
EXTT3=
EXTT4=
EXTT5=
EXTT6=
EXTT7=
EXTT8=
EXTT9=
PLAYORDER=
